G04*
G04 #@! TF.GenerationSoftware,Altium Limited,Altium Designer,19.0.4 (130)*
G04*
G04 Layer_Color=8388736*
%FSLAX25Y25*%
%MOIN*%
G70*
G01*
G75*
%ADD14C,0.01000*%
%ADD15C,0.00800*%
%ADD16R,0.31496X0.13583*%
%ADD17R,2.03937X0.23524*%
%ADD18R,0.03556X0.17335*%
%ADD19R,0.03556X0.13398*%
%ADD20C,0.04934*%
%ADD21R,0.04934X0.04934*%
%ADD22C,0.08871*%
%ADD23C,0.02800*%
D14*
X11407Y73534D02*
Y68811D01*
Y70385D01*
X14555Y73534D01*
X12194Y71172D01*
X14555Y68811D01*
X19278Y72747D02*
X18491Y73534D01*
X16917D01*
X16129Y72747D01*
Y69598D01*
X16917Y68811D01*
X18491D01*
X19278Y69598D01*
X23214Y73534D02*
X21639D01*
X20852Y72747D01*
Y69598D01*
X21639Y68811D01*
X23214D01*
X24001Y69598D01*
Y72747D01*
X23214Y73534D01*
X25575Y68811D02*
Y73534D01*
X27937D01*
X28724Y72747D01*
Y71172D01*
X27937Y70385D01*
X25575D01*
X27150D02*
X28724Y68811D01*
X33447Y73534D02*
X30298D01*
Y68811D01*
X33447D01*
X30298Y71172D02*
X31872D01*
X37382Y70385D02*
Y71172D01*
X36595D01*
Y70385D01*
X37382D01*
X38170Y71172D01*
Y72747D01*
X37382Y73534D01*
X35808D01*
X35021Y72747D01*
Y69598D01*
X35808Y68811D01*
X38170D01*
X39744Y73534D02*
Y68811D01*
Y71172D01*
X42892D01*
Y73534D01*
Y68811D01*
X45254D02*
X46828D01*
X47615Y69598D01*
Y71172D01*
X46828Y71960D01*
X45254D01*
X44467Y71172D01*
Y69598D01*
X45254Y68811D01*
X49189Y73534D02*
Y68811D01*
X51551D01*
X52338Y69598D01*
Y70385D01*
Y71172D01*
X51551Y71960D01*
X49189D01*
X53912Y73534D02*
Y68811D01*
X56274D01*
X57061Y69598D01*
Y70385D01*
Y71172D01*
X56274Y71960D01*
X53912D01*
X58635D02*
Y69598D01*
X59422Y68811D01*
X61784D01*
Y68024D01*
X60997Y67237D01*
X60210D01*
X61784Y68811D02*
Y71960D01*
X21165Y87278D02*
Y82555D01*
X22739Y84129D01*
X24313Y82555D01*
Y87278D01*
X26675Y85703D02*
X28249D01*
X29036Y84916D01*
Y82555D01*
X26675D01*
X25888Y83342D01*
X26675Y84129D01*
X29036D01*
X30610Y82555D02*
Y85703D01*
X32972D01*
X33759Y84916D01*
Y82555D01*
X36908Y80981D02*
X37695D01*
X38482Y81768D01*
Y85703D01*
X36121D01*
X35333Y84916D01*
Y83342D01*
X36121Y82555D01*
X38482D01*
X40056Y85703D02*
Y82555D01*
Y84129D01*
X40843Y84916D01*
X41631Y85703D01*
X42418D01*
X44779Y87278D02*
Y82555D01*
X47141D01*
X47928Y83342D01*
Y84129D01*
Y84916D01*
X47141Y85703D01*
X44779D01*
D15*
X13743Y75820D02*
Y80543D01*
X15317Y78969D01*
X16892Y80543D01*
Y75820D01*
X19253D02*
X20827D01*
X21614Y76608D01*
Y78182D01*
X20827Y78969D01*
X19253D01*
X18466Y78182D01*
Y76608D01*
X19253Y75820D01*
X26337Y80543D02*
Y75820D01*
X23976D01*
X23189Y76608D01*
Y78182D01*
X23976Y78969D01*
X26337D01*
X27912Y75820D02*
X29486D01*
X28699D01*
Y78969D01*
X27912D01*
X32635Y75820D02*
Y79756D01*
Y78182D01*
X31847D01*
X33422D01*
X32635D01*
Y79756D01*
X33422Y80543D01*
X35783Y75820D02*
X37357D01*
X36570D01*
Y78969D01*
X35783D01*
X42080Y75820D02*
X40506D01*
X39719Y76608D01*
Y78182D01*
X40506Y78969D01*
X42080D01*
X42867Y78182D01*
Y77395D01*
X39719D01*
X47590Y80543D02*
Y75820D01*
X45229D01*
X44442Y76608D01*
Y78182D01*
X45229Y78969D01*
X47590D01*
X53887Y80543D02*
Y75820D01*
X56249D01*
X57036Y76608D01*
Y77395D01*
Y78182D01*
X56249Y78969D01*
X53887D01*
X58610D02*
Y76608D01*
X59398Y75820D01*
X61759D01*
Y75033D01*
X60972Y74246D01*
X60185D01*
X61759Y75820D02*
Y78969D01*
X12088Y93858D02*
Y89135D01*
X14449D01*
X15236Y89922D01*
Y93071D01*
X14449Y93858D01*
X12088D01*
X19172Y89135D02*
X17598D01*
X16811Y89922D01*
Y91496D01*
X17598Y92284D01*
X19172D01*
X19959Y91496D01*
Y90709D01*
X16811D01*
X21534Y89135D02*
X23895D01*
X24682Y89922D01*
X23895Y90709D01*
X22321D01*
X21534Y91496D01*
X22321Y92284D01*
X24682D01*
X26256Y89135D02*
X27831D01*
X27044D01*
Y92284D01*
X26256D01*
X31767Y87561D02*
X32554D01*
X33341Y88348D01*
Y92284D01*
X30979D01*
X30192Y91496D01*
Y89922D01*
X30979Y89135D01*
X33341D01*
X34915D02*
Y92284D01*
X37277D01*
X38064Y91496D01*
Y89135D01*
X41999D02*
X40425D01*
X39638Y89922D01*
Y91496D01*
X40425Y92284D01*
X41999D01*
X42787Y91496D01*
Y90709D01*
X39638D01*
X47510Y93858D02*
Y89135D01*
X45148D01*
X44361Y89922D01*
Y91496D01*
X45148Y92284D01*
X47510D01*
X53807Y93858D02*
Y89135D01*
X56168D01*
X56955Y89922D01*
Y90709D01*
Y91496D01*
X56168Y92284D01*
X53807D01*
X58530D02*
Y89922D01*
X59317Y89135D01*
X61678D01*
Y88348D01*
X60891Y87561D01*
X60104D01*
X61678Y89135D02*
Y92284D01*
X18541Y99785D02*
X15392D01*
Y97423D01*
X16967D01*
X15392D01*
Y95062D01*
X20115Y99785D02*
Y95062D01*
X23264D01*
X27200Y99785D02*
X25625D01*
X24838Y98998D01*
Y95849D01*
X25625Y95062D01*
X27200D01*
X27987Y95849D01*
Y98998D01*
X27200Y99785D01*
X29561Y95062D02*
Y99785D01*
X31135Y98211D01*
X32710Y99785D01*
Y95062D01*
X37432D02*
X34284D01*
X37432Y98211D01*
Y98998D01*
X36645Y99785D01*
X35071D01*
X34284Y98998D01*
X39007Y95062D02*
Y99785D01*
X41368D01*
X42155Y98998D01*
Y97423D01*
X41368Y96636D01*
X39007D01*
X46878Y98998D02*
X46091Y99785D01*
X44517D01*
X43730Y98998D01*
Y95849D01*
X44517Y95062D01*
X46091D01*
X46878Y95849D01*
X48452Y99785D02*
X50027D01*
X49240D01*
Y95062D01*
X48452D01*
X50027D01*
X54750D02*
X53175D01*
X52388Y95849D01*
Y97423D01*
X53175Y98211D01*
X54750D01*
X55537Y97423D01*
Y96636D01*
X52388D01*
D16*
X147047Y24508D02*
D03*
D17*
X278150Y10778D02*
D03*
D18*
X289961Y13780D02*
D03*
X282086D02*
D03*
X270276D02*
D03*
X297835D02*
D03*
X278150D02*
D03*
X286023D02*
D03*
X293898D02*
D03*
X301772D02*
D03*
X274213D02*
D03*
X258465D02*
D03*
X262402D02*
D03*
X266338D02*
D03*
X309646D02*
D03*
X179724D02*
D03*
X183661D02*
D03*
X211221D02*
D03*
X199409D02*
D03*
X187598D02*
D03*
X207284D02*
D03*
X191535D02*
D03*
X195472D02*
D03*
X203347D02*
D03*
X215158D02*
D03*
X219094D02*
D03*
X234842D02*
D03*
X254528D02*
D03*
X238780D02*
D03*
X246654D02*
D03*
X242717D02*
D03*
X230906D02*
D03*
X325394D02*
D03*
X352953D02*
D03*
X360827D02*
D03*
X329331D02*
D03*
X321457D02*
D03*
X313583D02*
D03*
X341142D02*
D03*
X317520D02*
D03*
X345079D02*
D03*
X349016D02*
D03*
X364764D02*
D03*
X376575D02*
D03*
X368701D02*
D03*
X356890D02*
D03*
X333268D02*
D03*
X337205D02*
D03*
D19*
X305709Y15748D02*
D03*
X250590D02*
D03*
X372638D02*
D03*
D20*
X297441Y92586D02*
D03*
Y82744D02*
D03*
X293504Y100460D02*
D03*
Y74869D02*
D03*
X285630D02*
D03*
X277756D02*
D03*
X269882D02*
D03*
X262008D02*
D03*
X254134D02*
D03*
X246260D02*
D03*
X238386D02*
D03*
X230512D02*
D03*
X289567Y82744D02*
D03*
X281693D02*
D03*
X273819D02*
D03*
X265945D02*
D03*
X258071D02*
D03*
X250197D02*
D03*
X242323D02*
D03*
X234449D02*
D03*
X289567Y92586D02*
D03*
X281693D02*
D03*
X273819D02*
D03*
X265945D02*
D03*
X258071D02*
D03*
X250197D02*
D03*
X242323D02*
D03*
X234449D02*
D03*
X285630Y100460D02*
D03*
X277756D02*
D03*
X269882D02*
D03*
X262008D02*
D03*
X254134D02*
D03*
X246260D02*
D03*
X238386D02*
D03*
X108465Y92586D02*
D03*
X116339D02*
D03*
X124213D02*
D03*
X132087D02*
D03*
X139961D02*
D03*
X104528Y100460D02*
D03*
X112402D02*
D03*
X120276D02*
D03*
X128150D02*
D03*
X136024D02*
D03*
X100591Y82744D02*
D03*
X108465D02*
D03*
X116339D02*
D03*
X124213D02*
D03*
X132087D02*
D03*
X139961D02*
D03*
X104528Y74869D02*
D03*
X112402D02*
D03*
X120276D02*
D03*
X128150D02*
D03*
X136024D02*
D03*
X151772Y100460D02*
D03*
X159646D02*
D03*
X167520D02*
D03*
X175394D02*
D03*
X183268D02*
D03*
X191142D02*
D03*
X199016D02*
D03*
X206890D02*
D03*
X214764D02*
D03*
X222638D02*
D03*
X155709Y92586D02*
D03*
X163583D02*
D03*
X171457D02*
D03*
X179331D02*
D03*
X187205D02*
D03*
X195079D02*
D03*
X202953D02*
D03*
X210827D02*
D03*
X218701D02*
D03*
X155709Y82744D02*
D03*
X163583D02*
D03*
X171457D02*
D03*
X179331D02*
D03*
X187205D02*
D03*
X195079D02*
D03*
X202953D02*
D03*
X210827D02*
D03*
X218701D02*
D03*
X151772Y74869D02*
D03*
X159646D02*
D03*
X167520D02*
D03*
X175394D02*
D03*
X183268D02*
D03*
X191142D02*
D03*
X199016D02*
D03*
X206890D02*
D03*
X214764D02*
D03*
X222638D02*
D03*
X226575Y82744D02*
D03*
Y92586D02*
D03*
X230512Y100460D02*
D03*
D21*
X100591Y92586D02*
D03*
D22*
X146457Y87665D02*
D03*
X304528D02*
D03*
D23*
X186785Y33242D02*
D03*
X207410Y25573D02*
D03*
M02*
