G04*
G04 #@! TF.GenerationSoftware,Altium Limited,Altium Designer,19.0.4 (130)*
G04*
G04 Layer_Physical_Order=2*
G04 Layer_Color=32768*
%FSLAX25Y25*%
%MOIN*%
G70*
G01*
G75*
%ADD30C,0.04000*%
%ADD31C,0.06756*%
%ADD32C,0.13252*%
%ADD33C,0.05400*%
G36*
X172076Y49921D02*
X173384Y49379D01*
X174560Y48593D01*
X175561Y47592D01*
X176348Y46415D01*
X176889Y45108D01*
X177165Y43720D01*
Y43012D01*
Y1969D01*
X177165Y1969D01*
Y22047D01*
X221260Y22047D01*
Y29331D01*
Y29823D01*
X221515Y30774D01*
X222007Y31627D01*
X222704Y32324D01*
X223556Y32816D01*
X224508Y33071D01*
X225492D01*
X226444Y32816D01*
X227296Y32324D01*
X227993Y31627D01*
X228485Y30774D01*
X228740Y29823D01*
Y29331D01*
Y22047D01*
X379134D01*
Y1969D01*
X377165Y0D01*
X230709Y-53D01*
X230656Y0D01*
X219291D01*
X219291Y0D01*
X179134Y-14D01*
X179120Y0D01*
X131299D01*
Y17717D01*
X162795D01*
Y43012D01*
Y43720D01*
X163071Y45108D01*
X163613Y46415D01*
X164399Y47592D01*
X165400Y48593D01*
X166577Y49379D01*
X167885Y49921D01*
X169273Y50197D01*
X170688D01*
X172076Y49921D01*
D02*
G37*
D30*
X131299Y17717D02*
X131299D01*
Y17717D01*
X162795D01*
Y43012D01*
Y43720D01*
X163071Y45108D01*
X163613Y46415D01*
X164399Y47592D01*
X165400Y48593D01*
X166577Y49379D01*
X167885Y49921D01*
X169273Y50197D01*
X170688D01*
X172076Y49921D01*
X173384Y49379D01*
X174560Y48593D01*
X175561Y47592D01*
X176348Y46415D01*
X176889Y45108D01*
X177165Y43720D01*
Y43012D02*
Y43720D01*
Y1969D02*
Y43012D01*
Y1969D02*
X179134Y-0D01*
X219291D01*
X219291Y0D01*
X219291D02*
X219291D01*
X219291D02*
X220177Y886D01*
X221260Y1969D01*
X221260Y29331D02*
Y29823D01*
X221515Y30774D01*
X222007Y31627D01*
X222704Y32324D01*
X223556Y32816D01*
X224508Y33071D01*
X225492D01*
X226444Y32816D01*
X227296Y32324D01*
X227993Y31627D01*
X228485Y30774D01*
X228740Y29823D01*
Y29331D02*
Y29823D01*
Y1969D02*
Y29331D01*
Y1969D02*
X230709Y-0D01*
X377165D01*
X0Y109076D02*
X379134Y109076D01*
X-0Y17717D02*
X0Y109076D01*
X-0Y17717D02*
X59055D01*
Y50197D01*
X131299D01*
Y17717D02*
Y50197D01*
X221260Y1969D02*
X221260Y29331D01*
X377165Y-0D02*
X379134Y1969D01*
Y109076D01*
D31*
X297441Y82744D02*
D03*
X293504Y100460D02*
D03*
X285630Y74869D02*
D03*
X269882D02*
D03*
X254134D02*
D03*
X238386D02*
D03*
X281693Y82744D02*
D03*
X265945D02*
D03*
X250197D02*
D03*
X234449D02*
D03*
X289567Y92586D02*
D03*
X273819D02*
D03*
X258071D02*
D03*
X242323D02*
D03*
X277756Y100460D02*
D03*
X262008D02*
D03*
X246260D02*
D03*
X100591Y92586D02*
D03*
X108465D02*
D03*
X132087D02*
D03*
X139961D02*
D03*
X104528Y100460D02*
D03*
X136024D02*
D03*
X100591Y82744D02*
D03*
X108465D02*
D03*
X116339D02*
D03*
X124213D02*
D03*
X104528Y74869D02*
D03*
X112402D02*
D03*
X128150D02*
D03*
X136024D02*
D03*
X151772Y100460D02*
D03*
X159646D02*
D03*
X167520D02*
D03*
X183268D02*
D03*
X199016D02*
D03*
X214764D02*
D03*
X171457Y92586D02*
D03*
X179331D02*
D03*
X195079D02*
D03*
X210827D02*
D03*
X171457Y82744D02*
D03*
X187205D02*
D03*
X202953D02*
D03*
X218701D02*
D03*
X151772Y74869D02*
D03*
X159646D02*
D03*
X175394D02*
D03*
X191142D02*
D03*
X206890D02*
D03*
X214764D02*
D03*
X222638D02*
D03*
X226575Y92586D02*
D03*
X230512Y100460D02*
D03*
D32*
X146457Y87665D02*
D03*
X304528D02*
D03*
D33*
X186785Y33242D02*
D03*
X207410Y25573D02*
D03*
X187673Y24354D02*
D03*
X183865Y24401D02*
D03*
X179793Y33634D02*
D03*
M02*
