G04*
G04 #@! TF.GenerationSoftware,Altium Limited,Altium Designer,19.0.4 (130)*
G04*
G04 Layer_Color=255*
%FSLAX25Y25*%
%MOIN*%
G70*
G01*
G75*
%ADD12R,0.02756X0.16535*%
%ADD13R,0.02756X0.12598*%
%ADD26C,0.04134*%
%ADD27R,0.04134X0.04134*%
%ADD28C,0.08071*%
D12*
X289961Y13780D02*
D03*
X282086D02*
D03*
X270276D02*
D03*
X297835D02*
D03*
X278150D02*
D03*
X286023D02*
D03*
X293898D02*
D03*
X301772D02*
D03*
X274213D02*
D03*
X258465D02*
D03*
X262402D02*
D03*
X266338D02*
D03*
X309646D02*
D03*
X179724D02*
D03*
X183661D02*
D03*
X211221D02*
D03*
X199409D02*
D03*
X187598D02*
D03*
X207284D02*
D03*
X191535D02*
D03*
X195472D02*
D03*
X203347D02*
D03*
X215158D02*
D03*
X219094D02*
D03*
X234842D02*
D03*
X254528D02*
D03*
X238780D02*
D03*
X246654D02*
D03*
X242717D02*
D03*
X230906D02*
D03*
X325394D02*
D03*
X352953D02*
D03*
X360827D02*
D03*
X329331D02*
D03*
X321457D02*
D03*
X313583D02*
D03*
X341142D02*
D03*
X317520D02*
D03*
X345079D02*
D03*
X349016D02*
D03*
X364764D02*
D03*
X376575D02*
D03*
X368701D02*
D03*
X356890D02*
D03*
X333268D02*
D03*
X337205D02*
D03*
D13*
X305709Y15748D02*
D03*
X250590D02*
D03*
X372638D02*
D03*
D26*
X297441Y92586D02*
D03*
Y82744D02*
D03*
X293504Y100460D02*
D03*
Y74869D02*
D03*
X285630D02*
D03*
X277756D02*
D03*
X269882D02*
D03*
X262008D02*
D03*
X254134D02*
D03*
X246260D02*
D03*
X238386D02*
D03*
X230512D02*
D03*
X289567Y82744D02*
D03*
X281693D02*
D03*
X273819D02*
D03*
X265945D02*
D03*
X258071D02*
D03*
X250197D02*
D03*
X242323D02*
D03*
X234449D02*
D03*
X289567Y92586D02*
D03*
X281693D02*
D03*
X273819D02*
D03*
X265945D02*
D03*
X258071D02*
D03*
X250197D02*
D03*
X242323D02*
D03*
X234449D02*
D03*
X285630Y100460D02*
D03*
X277756D02*
D03*
X269882D02*
D03*
X262008D02*
D03*
X254134D02*
D03*
X246260D02*
D03*
X238386D02*
D03*
X108465Y92586D02*
D03*
X116339D02*
D03*
X124213D02*
D03*
X132087D02*
D03*
X139961D02*
D03*
X104528Y100460D02*
D03*
X112402D02*
D03*
X120276D02*
D03*
X128150D02*
D03*
X136024D02*
D03*
X100591Y82744D02*
D03*
X108465D02*
D03*
X116339D02*
D03*
X124213D02*
D03*
X132087D02*
D03*
X139961D02*
D03*
X104528Y74869D02*
D03*
X112402D02*
D03*
X120276D02*
D03*
X128150D02*
D03*
X136024D02*
D03*
X151772Y100460D02*
D03*
X159646D02*
D03*
X167520D02*
D03*
X175394D02*
D03*
X183268D02*
D03*
X191142D02*
D03*
X199016D02*
D03*
X206890D02*
D03*
X214764D02*
D03*
X222638D02*
D03*
X155709Y92586D02*
D03*
X163583D02*
D03*
X171457D02*
D03*
X179331D02*
D03*
X187205D02*
D03*
X195079D02*
D03*
X202953D02*
D03*
X210827D02*
D03*
X218701D02*
D03*
X155709Y82744D02*
D03*
X163583D02*
D03*
X171457D02*
D03*
X179331D02*
D03*
X187205D02*
D03*
X195079D02*
D03*
X202953D02*
D03*
X210827D02*
D03*
X218701D02*
D03*
X151772Y74869D02*
D03*
X159646D02*
D03*
X167520D02*
D03*
X175394D02*
D03*
X183268D02*
D03*
X191142D02*
D03*
X199016D02*
D03*
X206890D02*
D03*
X214764D02*
D03*
X222638D02*
D03*
X226575Y82744D02*
D03*
Y92586D02*
D03*
X230512Y100460D02*
D03*
D27*
X100591Y92586D02*
D03*
D28*
X146457Y87665D02*
D03*
X304528D02*
D03*
M02*
