G04*
G04 #@! TF.GenerationSoftware,Altium Limited,Altium Designer,19.0.4 (130)*
G04*
G04 Layer_Color=65535*
%FSLAX25Y25*%
%MOIN*%
G70*
G01*
G75*
%ADD10C,0.02362*%
%ADD11C,0.00787*%
G36*
X52456Y42236D02*
X51964D01*
Y44927D01*
X51140Y42236D01*
X50657D01*
X49807Y44968D01*
Y42236D01*
X49316D01*
Y45443D01*
X50090D01*
X50898Y42878D01*
X51681Y45443D01*
X52456D01*
Y42236D01*
D02*
G37*
G36*
X48957Y44968D02*
X47899D01*
Y42236D01*
X47366D01*
Y44968D01*
X46325D01*
Y45443D01*
X48957D01*
Y44968D01*
D02*
G37*
G36*
X39270Y39679D02*
X38595D01*
X37020Y43861D01*
X37770D01*
X38670Y41353D01*
Y41345D01*
X38678Y41337D01*
X38686Y41311D01*
X38695Y41287D01*
X38720Y41203D01*
X38753Y41095D01*
X38795Y40970D01*
X38845Y40828D01*
X38886Y40670D01*
X38936Y40512D01*
X38945Y40529D01*
X38953Y40570D01*
X38978Y40637D01*
X39003Y40737D01*
X39045Y40845D01*
X39086Y40987D01*
X39145Y41137D01*
X39203Y41303D01*
X40128Y43861D01*
X40861D01*
X39270Y39679D01*
D02*
G37*
G36*
X30773D02*
X30023D01*
X28815Y44069D01*
Y44077D01*
X28807Y44094D01*
X28799Y44119D01*
X28790Y44160D01*
X28765Y44252D01*
X28740Y44360D01*
X28707Y44477D01*
X28674Y44585D01*
X28649Y44677D01*
X28640Y44719D01*
X28632Y44743D01*
Y44735D01*
X28624Y44727D01*
X28615Y44677D01*
X28599Y44602D01*
X28574Y44510D01*
X28549Y44410D01*
X28515Y44294D01*
X28490Y44177D01*
X28457Y44069D01*
X27241Y39679D01*
X26441D01*
X24934Y45443D01*
X25725D01*
X26583Y41661D01*
Y41653D01*
X26591Y41636D01*
X26600Y41603D01*
X26608Y41561D01*
X26616Y41503D01*
X26633Y41445D01*
X26650Y41370D01*
X26666Y41287D01*
X26708Y41112D01*
X26750Y40912D01*
X26791Y40695D01*
X26833Y40479D01*
Y40487D01*
X26841Y40520D01*
X26858Y40562D01*
X26866Y40628D01*
X26883Y40695D01*
X26908Y40778D01*
X26950Y40962D01*
X26999Y41145D01*
X27016Y41236D01*
X27041Y41320D01*
X27058Y41395D01*
X27074Y41461D01*
X27091Y41511D01*
X27099Y41545D01*
X28191Y45443D01*
X29115D01*
X29932Y42519D01*
Y42511D01*
X29948Y42469D01*
X29965Y42411D01*
X29982Y42336D01*
X30007Y42236D01*
X30040Y42128D01*
X30073Y42003D01*
X30106Y41861D01*
X30148Y41703D01*
X30182Y41545D01*
X30257Y41203D01*
X30331Y40845D01*
X30390Y40479D01*
Y40487D01*
X30398Y40503D01*
Y40537D01*
X30415Y40578D01*
X30423Y40628D01*
X30440Y40687D01*
X30448Y40762D01*
X30473Y40845D01*
X30515Y41028D01*
X30565Y41245D01*
X30615Y41478D01*
X30681Y41736D01*
X31581Y45443D01*
X32356D01*
X30773Y39679D01*
D02*
G37*
G36*
X24267D02*
X23634D01*
Y40287D01*
X23626Y40279D01*
X23609Y40254D01*
X23584Y40220D01*
X23542Y40179D01*
X23493Y40129D01*
X23434Y40062D01*
X23368Y40004D01*
X23284Y39937D01*
X23193Y39870D01*
X23093Y39812D01*
X22984Y39754D01*
X22868Y39696D01*
X22735Y39654D01*
X22601Y39621D01*
X22451Y39595D01*
X22301Y39587D01*
X22243D01*
X22168Y39595D01*
X22076Y39604D01*
X21968Y39621D01*
X21851Y39645D01*
X21735Y39679D01*
X21610Y39729D01*
X21593Y39737D01*
X21560Y39754D01*
X21502Y39787D01*
X21435Y39829D01*
X21352Y39879D01*
X21277Y39937D01*
X21202Y40004D01*
X21135Y40079D01*
X21127Y40087D01*
X21110Y40120D01*
X21085Y40162D01*
X21052Y40229D01*
X21010Y40304D01*
X20977Y40395D01*
X20944Y40495D01*
X20919Y40603D01*
Y40612D01*
X20910Y40645D01*
X20902Y40695D01*
Y40762D01*
X20893Y40862D01*
X20885Y40970D01*
X20877Y41112D01*
Y41270D01*
Y43861D01*
X21585D01*
Y41536D01*
Y41528D01*
Y41511D01*
Y41486D01*
Y41445D01*
Y41353D01*
X21593Y41236D01*
Y41112D01*
X21602Y40987D01*
X21610Y40878D01*
X21627Y40787D01*
Y40778D01*
X21643Y40745D01*
X21660Y40695D01*
X21685Y40628D01*
X21726Y40562D01*
X21777Y40487D01*
X21835Y40420D01*
X21910Y40354D01*
X21918Y40345D01*
X21951Y40329D01*
X21993Y40304D01*
X22060Y40279D01*
X22135Y40245D01*
X22226Y40220D01*
X22326Y40204D01*
X22443Y40195D01*
X22501D01*
X22559Y40204D01*
X22635Y40212D01*
X22726Y40237D01*
X22826Y40262D01*
X22934Y40304D01*
X23043Y40354D01*
X23059Y40362D01*
X23093Y40387D01*
X23143Y40420D01*
X23201Y40470D01*
X23268Y40537D01*
X23334Y40612D01*
X23392Y40695D01*
X23442Y40795D01*
X23451Y40812D01*
X23459Y40845D01*
X23476Y40912D01*
X23501Y41003D01*
X23526Y41120D01*
X23542Y41262D01*
X23551Y41428D01*
X23559Y41620D01*
Y43861D01*
X24267D01*
Y39679D01*
D02*
G37*
G36*
X34930Y43944D02*
X35054Y43935D01*
X35196Y43919D01*
X35338Y43894D01*
X35479Y43861D01*
X35613Y43819D01*
X35629Y43810D01*
X35671Y43794D01*
X35729Y43769D01*
X35804Y43736D01*
X35888Y43685D01*
X35971Y43636D01*
X36046Y43569D01*
X36112Y43502D01*
X36121Y43494D01*
X36137Y43469D01*
X36162Y43427D01*
X36196Y43377D01*
X36237Y43302D01*
X36271Y43227D01*
X36304Y43136D01*
X36329Y43027D01*
Y43019D01*
X36337Y42994D01*
X36346Y42944D01*
X36354Y42878D01*
Y42786D01*
X36362Y42678D01*
X36371Y42536D01*
Y42378D01*
Y41428D01*
Y41420D01*
Y41387D01*
Y41337D01*
Y41270D01*
Y41195D01*
Y41103D01*
X36379Y40903D01*
Y40695D01*
X36387Y40487D01*
X36396Y40395D01*
Y40312D01*
X36404Y40237D01*
X36412Y40179D01*
Y40170D01*
X36421Y40137D01*
X36429Y40087D01*
X36454Y40020D01*
X36471Y39945D01*
X36504Y39862D01*
X36546Y39770D01*
X36587Y39679D01*
X35846D01*
X35838Y39687D01*
X35829Y39720D01*
X35813Y39762D01*
X35788Y39829D01*
X35763Y39904D01*
X35746Y39995D01*
X35729Y40095D01*
X35713Y40204D01*
X35704D01*
X35696Y40187D01*
X35646Y40145D01*
X35571Y40087D01*
X35471Y40012D01*
X35346Y39937D01*
X35221Y39854D01*
X35088Y39779D01*
X34946Y39720D01*
X34930Y39712D01*
X34880Y39704D01*
X34805Y39679D01*
X34713Y39654D01*
X34596Y39629D01*
X34463Y39612D01*
X34313Y39595D01*
X34163Y39587D01*
X34097D01*
X34047Y39595D01*
X33988D01*
X33922Y39604D01*
X33772Y39629D01*
X33605Y39671D01*
X33422Y39729D01*
X33255Y39812D01*
X33105Y39920D01*
X33089Y39937D01*
X33047Y39979D01*
X32989Y40054D01*
X32922Y40154D01*
X32855Y40279D01*
X32797Y40420D01*
X32756Y40595D01*
X32747Y40678D01*
X32739Y40778D01*
Y40795D01*
Y40828D01*
X32747Y40887D01*
X32756Y40962D01*
X32772Y41053D01*
X32797Y41145D01*
X32830Y41245D01*
X32872Y41337D01*
X32880Y41345D01*
X32897Y41378D01*
X32930Y41428D01*
X32972Y41486D01*
X33022Y41553D01*
X33089Y41620D01*
X33155Y41686D01*
X33239Y41745D01*
X33247Y41753D01*
X33280Y41770D01*
X33322Y41803D01*
X33389Y41836D01*
X33463Y41870D01*
X33555Y41911D01*
X33647Y41945D01*
X33755Y41978D01*
X33763D01*
X33797Y41986D01*
X33847Y42003D01*
X33913Y42011D01*
X33997Y42028D01*
X34105Y42044D01*
X34230Y42070D01*
X34380Y42086D01*
X34388D01*
X34422Y42094D01*
X34463D01*
X34521Y42103D01*
X34588Y42111D01*
X34671Y42128D01*
X34763Y42136D01*
X34863Y42153D01*
X35063Y42195D01*
X35280Y42236D01*
X35471Y42286D01*
X35563Y42311D01*
X35646Y42336D01*
Y42344D01*
Y42361D01*
X35654Y42411D01*
Y42469D01*
Y42503D01*
Y42519D01*
Y42528D01*
Y42536D01*
Y42586D01*
X35646Y42669D01*
X35629Y42761D01*
X35604Y42861D01*
X35563Y42961D01*
X35513Y43053D01*
X35446Y43127D01*
X35438Y43136D01*
X35396Y43169D01*
X35329Y43202D01*
X35246Y43252D01*
X35129Y43294D01*
X34996Y43336D01*
X34830Y43361D01*
X34638Y43369D01*
X34555D01*
X34471Y43361D01*
X34355Y43344D01*
X34238Y43327D01*
X34113Y43294D01*
X33997Y43252D01*
X33897Y43194D01*
X33888Y43186D01*
X33855Y43161D01*
X33813Y43119D01*
X33763Y43053D01*
X33713Y42969D01*
X33655Y42861D01*
X33605Y42728D01*
X33555Y42578D01*
X32864Y42669D01*
Y42678D01*
X32872Y42686D01*
Y42711D01*
X32880Y42744D01*
X32905Y42819D01*
X32939Y42928D01*
X32980Y43036D01*
X33030Y43152D01*
X33097Y43269D01*
X33172Y43377D01*
X33180Y43386D01*
X33214Y43419D01*
X33264Y43469D01*
X33330Y43536D01*
X33422Y43602D01*
X33530Y43669D01*
X33655Y43744D01*
X33797Y43802D01*
X33805D01*
X33813Y43810D01*
X33838Y43819D01*
X33872Y43827D01*
X33955Y43852D01*
X34072Y43877D01*
X34205Y43902D01*
X34372Y43927D01*
X34546Y43944D01*
X34746Y43952D01*
X34838D01*
X34930Y43944D01*
D02*
G37*
G36*
X8574Y45435D02*
X8740Y45426D01*
X8907Y45410D01*
X9073Y45385D01*
X9215Y45360D01*
X9223D01*
X9240Y45351D01*
X9265D01*
X9298Y45335D01*
X9390Y45310D01*
X9506Y45268D01*
X9640Y45210D01*
X9781Y45135D01*
X9923Y45052D01*
X10056Y44943D01*
X10064Y44935D01*
X10073Y44927D01*
X10098Y44902D01*
X10131Y44877D01*
X10215Y44793D01*
X10314Y44677D01*
X10423Y44535D01*
X10539Y44369D01*
X10648Y44177D01*
X10739Y43960D01*
Y43952D01*
X10748Y43935D01*
X10764Y43902D01*
X10773Y43852D01*
X10798Y43794D01*
X10814Y43727D01*
X10831Y43652D01*
X10856Y43561D01*
X10881Y43469D01*
X10898Y43361D01*
X10939Y43127D01*
X10964Y42869D01*
X10972Y42586D01*
Y42578D01*
Y42561D01*
Y42519D01*
Y42478D01*
X10964Y42419D01*
Y42353D01*
X10956Y42195D01*
X10931Y42011D01*
X10906Y41820D01*
X10864Y41620D01*
X10814Y41420D01*
Y41412D01*
X10806Y41395D01*
X10798Y41370D01*
X10789Y41337D01*
X10756Y41245D01*
X10706Y41128D01*
X10656Y40995D01*
X10589Y40862D01*
X10506Y40720D01*
X10423Y40587D01*
X10414Y40570D01*
X10381Y40529D01*
X10331Y40470D01*
X10265Y40395D01*
X10189Y40312D01*
X10098Y40229D01*
X10006Y40137D01*
X9898Y40062D01*
X9881Y40054D01*
X9848Y40029D01*
X9790Y39995D01*
X9706Y39954D01*
X9606Y39904D01*
X9490Y39862D01*
X9357Y39812D01*
X9207Y39770D01*
X9190D01*
X9165Y39762D01*
X9140Y39754D01*
X9057Y39745D01*
X8940Y39729D01*
X8807Y39712D01*
X8648Y39696D01*
X8473Y39687D01*
X8282Y39679D01*
X6208D01*
Y45443D01*
X8423D01*
X8574Y45435D01*
D02*
G37*
G36*
X43343Y43944D02*
X43409Y43935D01*
X43493Y43919D01*
X43584Y43902D01*
X43693Y43877D01*
X43793Y43852D01*
X43909Y43810D01*
X44018Y43769D01*
X44134Y43711D01*
X44251Y43644D01*
X44368Y43569D01*
X44476Y43477D01*
X44576Y43377D01*
X44584Y43369D01*
X44601Y43352D01*
X44626Y43319D01*
X44659Y43269D01*
X44701Y43211D01*
X44742Y43144D01*
X44792Y43061D01*
X44842Y42961D01*
X44892Y42853D01*
X44942Y42736D01*
X44984Y42603D01*
X45026Y42461D01*
X45059Y42303D01*
X45084Y42136D01*
X45101Y41961D01*
X45109Y41770D01*
Y41761D01*
Y41728D01*
Y41670D01*
X45101Y41586D01*
X41977D01*
Y41578D01*
Y41553D01*
X41985Y41520D01*
Y41470D01*
X41993Y41412D01*
X42010Y41345D01*
X42035Y41195D01*
X42085Y41028D01*
X42152Y40845D01*
X42243Y40678D01*
X42360Y40529D01*
X42368D01*
X42377Y40512D01*
X42427Y40470D01*
X42502Y40412D01*
X42601Y40354D01*
X42735Y40287D01*
X42885Y40229D01*
X43051Y40187D01*
X43143Y40179D01*
X43243Y40170D01*
X43310D01*
X43385Y40179D01*
X43476Y40195D01*
X43576Y40220D01*
X43693Y40254D01*
X43801Y40304D01*
X43909Y40370D01*
X43918Y40378D01*
X43959Y40412D01*
X44009Y40462D01*
X44068Y40529D01*
X44134Y40620D01*
X44209Y40737D01*
X44284Y40870D01*
X44351Y41028D01*
X45084Y40937D01*
Y40928D01*
X45076Y40912D01*
X45067Y40878D01*
X45050Y40828D01*
X45026Y40778D01*
X45001Y40712D01*
X44934Y40570D01*
X44851Y40412D01*
X44734Y40245D01*
X44601Y40087D01*
X44434Y39937D01*
X44426D01*
X44409Y39920D01*
X44384Y39904D01*
X44351Y39879D01*
X44301Y39854D01*
X44251Y39829D01*
X44184Y39795D01*
X44109Y39762D01*
X44026Y39729D01*
X43943Y39696D01*
X43734Y39645D01*
X43501Y39604D01*
X43243Y39587D01*
X43151D01*
X43093Y39595D01*
X43018Y39604D01*
X42926Y39621D01*
X42826Y39637D01*
X42718Y39654D01*
X42485Y39720D01*
X42360Y39770D01*
X42243Y39820D01*
X42118Y39887D01*
X42002Y39962D01*
X41894Y40045D01*
X41785Y40145D01*
X41777Y40154D01*
X41760Y40170D01*
X41735Y40204D01*
X41702Y40254D01*
X41660Y40312D01*
X41619Y40378D01*
X41569Y40462D01*
X41519Y40554D01*
X41469Y40662D01*
X41419Y40778D01*
X41377Y40912D01*
X41335Y41053D01*
X41302Y41203D01*
X41277Y41370D01*
X41260Y41545D01*
X41252Y41728D01*
Y41736D01*
Y41778D01*
Y41828D01*
X41260Y41903D01*
X41269Y41995D01*
X41277Y42094D01*
X41294Y42211D01*
X41319Y42328D01*
X41385Y42594D01*
X41427Y42728D01*
X41477Y42869D01*
X41544Y43003D01*
X41619Y43127D01*
X41702Y43252D01*
X41794Y43369D01*
X41802Y43377D01*
X41818Y43394D01*
X41852Y43419D01*
X41894Y43461D01*
X41943Y43502D01*
X42010Y43552D01*
X42085Y43611D01*
X42177Y43661D01*
X42268Y43719D01*
X42377Y43769D01*
X42493Y43819D01*
X42618Y43861D01*
X42752Y43902D01*
X42893Y43927D01*
X43043Y43944D01*
X43201Y43952D01*
X43285D01*
X43343Y43944D01*
D02*
G37*
G36*
X17103Y43386D02*
X17112Y43394D01*
X17120Y43411D01*
X17145Y43436D01*
X17187Y43477D01*
X17228Y43519D01*
X17278Y43569D01*
X17345Y43619D01*
X17412Y43669D01*
X17578Y43777D01*
X17770Y43861D01*
X17878Y43902D01*
X17995Y43927D01*
X18120Y43944D01*
X18245Y43952D01*
X18311D01*
X18386Y43944D01*
X18478Y43935D01*
X18586Y43910D01*
X18711Y43885D01*
X18844Y43844D01*
X18969Y43794D01*
X18986Y43786D01*
X19028Y43769D01*
X19094Y43727D01*
X19169Y43677D01*
X19261Y43619D01*
X19353Y43544D01*
X19452Y43452D01*
X19536Y43352D01*
X19544Y43344D01*
X19569Y43302D01*
X19611Y43244D01*
X19661Y43169D01*
X19719Y43069D01*
X19777Y42952D01*
X19836Y42819D01*
X19886Y42678D01*
Y42669D01*
X19894Y42661D01*
X19902Y42636D01*
X19911Y42611D01*
X19927Y42528D01*
X19952Y42419D01*
X19977Y42294D01*
X20002Y42153D01*
X20011Y41995D01*
X20019Y41828D01*
Y41820D01*
Y41778D01*
Y41728D01*
X20011Y41653D01*
X20002Y41561D01*
X19994Y41461D01*
X19977Y41345D01*
X19952Y41220D01*
X19886Y40953D01*
X19844Y40812D01*
X19794Y40678D01*
X19736Y40537D01*
X19661Y40412D01*
X19577Y40287D01*
X19486Y40170D01*
X19477Y40162D01*
X19461Y40145D01*
X19436Y40120D01*
X19394Y40079D01*
X19336Y40037D01*
X19277Y39987D01*
X19211Y39937D01*
X19128Y39879D01*
X19036Y39829D01*
X18944Y39770D01*
X18719Y39679D01*
X18603Y39637D01*
X18478Y39612D01*
X18345Y39595D01*
X18211Y39587D01*
X18178D01*
X18136Y39595D01*
X18086D01*
X18028Y39604D01*
X17953Y39621D01*
X17786Y39662D01*
X17695Y39696D01*
X17603Y39737D01*
X17503Y39787D01*
X17412Y39845D01*
X17312Y39920D01*
X17220Y40004D01*
X17137Y40095D01*
X17053Y40204D01*
Y39679D01*
X16395D01*
Y45443D01*
X17103D01*
Y43386D01*
D02*
G37*
G36*
X13780Y43944D02*
X13846Y43935D01*
X13930Y43919D01*
X14021Y43902D01*
X14130Y43877D01*
X14230Y43852D01*
X14346Y43810D01*
X14454Y43769D01*
X14571Y43711D01*
X14688Y43644D01*
X14804Y43569D01*
X14913Y43477D01*
X15013Y43377D01*
X15021Y43369D01*
X15037Y43352D01*
X15063Y43319D01*
X15096Y43269D01*
X15137Y43211D01*
X15179Y43144D01*
X15229Y43061D01*
X15279Y42961D01*
X15329Y42853D01*
X15379Y42736D01*
X15421Y42603D01*
X15462Y42461D01*
X15496Y42303D01*
X15521Y42136D01*
X15537Y41961D01*
X15546Y41770D01*
Y41761D01*
Y41728D01*
Y41670D01*
X15537Y41586D01*
X12414D01*
Y41578D01*
Y41553D01*
X12422Y41520D01*
Y41470D01*
X12430Y41412D01*
X12447Y41345D01*
X12472Y41195D01*
X12522Y41028D01*
X12588Y40845D01*
X12680Y40678D01*
X12797Y40529D01*
X12805D01*
X12813Y40512D01*
X12863Y40470D01*
X12938Y40412D01*
X13038Y40354D01*
X13172Y40287D01*
X13322Y40229D01*
X13488Y40187D01*
X13580Y40179D01*
X13680Y40170D01*
X13746D01*
X13821Y40179D01*
X13913Y40195D01*
X14013Y40220D01*
X14130Y40254D01*
X14238Y40304D01*
X14346Y40370D01*
X14355Y40378D01*
X14396Y40412D01*
X14446Y40462D01*
X14504Y40529D01*
X14571Y40620D01*
X14646Y40737D01*
X14721Y40870D01*
X14788Y41028D01*
X15521Y40937D01*
Y40928D01*
X15512Y40912D01*
X15504Y40878D01*
X15487Y40828D01*
X15462Y40778D01*
X15437Y40712D01*
X15371Y40570D01*
X15288Y40412D01*
X15171Y40245D01*
X15037Y40087D01*
X14871Y39937D01*
X14863D01*
X14846Y39920D01*
X14821Y39904D01*
X14788Y39879D01*
X14738Y39854D01*
X14688Y39829D01*
X14621Y39795D01*
X14546Y39762D01*
X14463Y39729D01*
X14379Y39696D01*
X14171Y39645D01*
X13938Y39604D01*
X13680Y39587D01*
X13588D01*
X13530Y39595D01*
X13455Y39604D01*
X13363Y39621D01*
X13263Y39637D01*
X13155Y39654D01*
X12922Y39720D01*
X12797Y39770D01*
X12680Y39820D01*
X12555Y39887D01*
X12439Y39962D01*
X12330Y40045D01*
X12222Y40145D01*
X12214Y40154D01*
X12197Y40170D01*
X12172Y40204D01*
X12139Y40254D01*
X12097Y40312D01*
X12055Y40378D01*
X12005Y40462D01*
X11955Y40554D01*
X11906Y40662D01*
X11856Y40778D01*
X11814Y40912D01*
X11772Y41053D01*
X11739Y41203D01*
X11714Y41370D01*
X11697Y41545D01*
X11689Y41728D01*
Y41736D01*
Y41778D01*
Y41828D01*
X11697Y41903D01*
X11705Y41995D01*
X11714Y42094D01*
X11731Y42211D01*
X11755Y42328D01*
X11822Y42594D01*
X11864Y42728D01*
X11914Y42869D01*
X11980Y43003D01*
X12055Y43127D01*
X12139Y43252D01*
X12230Y43369D01*
X12239Y43377D01*
X12255Y43394D01*
X12289Y43419D01*
X12330Y43461D01*
X12380Y43502D01*
X12447Y43552D01*
X12522Y43611D01*
X12614Y43661D01*
X12705Y43719D01*
X12813Y43769D01*
X12930Y43819D01*
X13055Y43861D01*
X13188Y43902D01*
X13330Y43927D01*
X13480Y43944D01*
X13638Y43952D01*
X13721D01*
X13780Y43944D01*
D02*
G37*
%LPC*%
G36*
X35654Y41778D02*
X35646D01*
X35638Y41770D01*
X35613Y41761D01*
X35579Y41753D01*
X35538Y41736D01*
X35488Y41720D01*
X35429Y41703D01*
X35363Y41686D01*
X35288Y41661D01*
X35196Y41645D01*
X35105Y41620D01*
X34996Y41595D01*
X34880Y41570D01*
X34763Y41545D01*
X34630Y41528D01*
X34488Y41503D01*
X34471D01*
X34422Y41495D01*
X34338Y41478D01*
X34247Y41461D01*
X34147Y41445D01*
X34047Y41420D01*
X33955Y41395D01*
X33872Y41361D01*
X33863D01*
X33838Y41345D01*
X33805Y41328D01*
X33772Y41303D01*
X33672Y41236D01*
X33588Y41137D01*
Y41128D01*
X33572Y41112D01*
X33564Y41078D01*
X33547Y41037D01*
X33530Y40987D01*
X33514Y40937D01*
X33505Y40870D01*
X33497Y40803D01*
Y40795D01*
Y40753D01*
X33505Y40703D01*
X33522Y40637D01*
X33547Y40562D01*
X33588Y40487D01*
X33638Y40404D01*
X33705Y40329D01*
X33713Y40320D01*
X33747Y40304D01*
X33797Y40270D01*
X33863Y40237D01*
X33955Y40204D01*
X34063Y40170D01*
X34188Y40154D01*
X34338Y40145D01*
X34405D01*
X34488Y40154D01*
X34580Y40170D01*
X34696Y40187D01*
X34813Y40220D01*
X34938Y40262D01*
X35063Y40320D01*
X35080Y40329D01*
X35113Y40354D01*
X35171Y40395D01*
X35238Y40453D01*
X35313Y40520D01*
X35396Y40603D01*
X35463Y40703D01*
X35529Y40812D01*
X35538Y40820D01*
X35546Y40853D01*
X35563Y40912D01*
X35588Y40987D01*
X35613Y41087D01*
X35629Y41203D01*
X35638Y41345D01*
X35646Y41511D01*
X35654Y41778D01*
D02*
G37*
G36*
X8307Y44760D02*
X6974D01*
Y40362D01*
X8340D01*
X8399Y40370D01*
X8523Y40378D01*
X8665Y40387D01*
X8815Y40404D01*
X8965Y40429D01*
X9090Y40462D01*
X9107Y40470D01*
X9148Y40479D01*
X9207Y40503D01*
X9281Y40537D01*
X9365Y40587D01*
X9448Y40637D01*
X9531Y40695D01*
X9615Y40762D01*
X9623Y40778D01*
X9656Y40812D01*
X9706Y40870D01*
X9765Y40953D01*
X9831Y41062D01*
X9906Y41186D01*
X9973Y41328D01*
X10031Y41486D01*
Y41495D01*
X10040Y41511D01*
X10048Y41536D01*
X10056Y41570D01*
X10064Y41611D01*
X10081Y41670D01*
X10098Y41728D01*
X10114Y41795D01*
X10140Y41961D01*
X10165Y42153D01*
X10181Y42369D01*
X10189Y42603D01*
Y42611D01*
Y42644D01*
Y42686D01*
X10181Y42753D01*
Y42828D01*
X10173Y42911D01*
X10165Y43011D01*
X10156Y43111D01*
X10114Y43336D01*
X10064Y43569D01*
X9990Y43786D01*
X9940Y43894D01*
X9890Y43985D01*
Y43994D01*
X9873Y44010D01*
X9856Y44035D01*
X9840Y44069D01*
X9773Y44152D01*
X9690Y44252D01*
X9581Y44360D01*
X9456Y44469D01*
X9315Y44560D01*
X9165Y44635D01*
X9148Y44644D01*
X9107Y44652D01*
X9032Y44677D01*
X8923Y44702D01*
X8790Y44719D01*
X8623Y44743D01*
X8523Y44752D01*
X8415D01*
X8307Y44760D01*
D02*
G37*
G36*
X43210Y43369D02*
X43160D01*
X43126Y43361D01*
X43035Y43352D01*
X42926Y43327D01*
X42793Y43286D01*
X42652Y43227D01*
X42518Y43144D01*
X42385Y43036D01*
X42368Y43019D01*
X42335Y42977D01*
X42277Y42902D01*
X42218Y42803D01*
X42152Y42686D01*
X42093Y42536D01*
X42043Y42361D01*
X42018Y42169D01*
X44359D01*
Y42178D01*
Y42195D01*
X44351Y42219D01*
Y42253D01*
X44334Y42353D01*
X44309Y42461D01*
X44267Y42594D01*
X44226Y42719D01*
X44159Y42844D01*
X44084Y42952D01*
Y42961D01*
X44068Y42969D01*
X44026Y43019D01*
X43951Y43086D01*
X43851Y43161D01*
X43726Y43236D01*
X43576Y43302D01*
X43401Y43352D01*
X43310Y43361D01*
X43210Y43369D01*
D02*
G37*
G36*
X18261D02*
X18136D01*
X18103Y43361D01*
X18011Y43344D01*
X17903Y43319D01*
X17778Y43269D01*
X17645Y43194D01*
X17578Y43152D01*
X17512Y43094D01*
X17445Y43036D01*
X17378Y42961D01*
Y42952D01*
X17362Y42944D01*
X17345Y42919D01*
X17328Y42886D01*
X17303Y42844D01*
X17270Y42794D01*
X17245Y42736D01*
X17212Y42669D01*
X17178Y42586D01*
X17153Y42503D01*
X17120Y42403D01*
X17095Y42303D01*
X17078Y42186D01*
X17062Y42061D01*
X17045Y41936D01*
Y41795D01*
Y41786D01*
Y41761D01*
Y41720D01*
Y41670D01*
X17053Y41611D01*
Y41536D01*
X17070Y41378D01*
X17095Y41203D01*
X17128Y41020D01*
X17178Y40853D01*
X17212Y40778D01*
X17245Y40712D01*
Y40703D01*
X17262Y40687D01*
X17278Y40662D01*
X17303Y40628D01*
X17378Y40537D01*
X17487Y40445D01*
X17612Y40345D01*
X17770Y40254D01*
X17853Y40220D01*
X17953Y40195D01*
X18045Y40179D01*
X18153Y40170D01*
X18195D01*
X18228Y40179D01*
X18320Y40195D01*
X18428Y40220D01*
X18553Y40270D01*
X18686Y40337D01*
X18819Y40437D01*
X18886Y40503D01*
X18953Y40570D01*
Y40578D01*
X18969Y40587D01*
X18986Y40612D01*
X19003Y40645D01*
X19036Y40687D01*
X19061Y40737D01*
X19094Y40803D01*
X19128Y40870D01*
X19153Y40953D01*
X19186Y41037D01*
X19219Y41137D01*
X19244Y41245D01*
X19261Y41361D01*
X19277Y41486D01*
X19294Y41628D01*
Y41770D01*
Y41778D01*
Y41803D01*
Y41845D01*
X19286Y41903D01*
Y41970D01*
X19277Y42053D01*
X19252Y42228D01*
X19219Y42419D01*
X19161Y42628D01*
X19078Y42811D01*
X19028Y42902D01*
X18969Y42977D01*
Y42986D01*
X18953Y42994D01*
X18911Y43036D01*
X18844Y43102D01*
X18753Y43177D01*
X18636Y43244D01*
X18503Y43311D01*
X18345Y43352D01*
X18261Y43369D01*
D02*
G37*
G36*
X13646D02*
X13597D01*
X13563Y43361D01*
X13472Y43352D01*
X13363Y43327D01*
X13230Y43286D01*
X13088Y43227D01*
X12955Y43144D01*
X12822Y43036D01*
X12805Y43019D01*
X12772Y42977D01*
X12713Y42902D01*
X12655Y42803D01*
X12588Y42686D01*
X12530Y42536D01*
X12480Y42361D01*
X12455Y42169D01*
X14796D01*
Y42178D01*
Y42195D01*
X14788Y42219D01*
Y42253D01*
X14771Y42353D01*
X14746Y42461D01*
X14704Y42594D01*
X14663Y42719D01*
X14596Y42844D01*
X14521Y42952D01*
Y42961D01*
X14504Y42969D01*
X14463Y43019D01*
X14388Y43086D01*
X14288Y43161D01*
X14163Y43236D01*
X14013Y43302D01*
X13838Y43352D01*
X13746Y43361D01*
X13646Y43369D01*
D02*
G37*
%LPD*%
D10*
X101016Y107165D02*
X100571Y108088D01*
X99572Y108316D01*
X98770Y107677D01*
Y106652D01*
X99572Y106013D01*
X100571Y106241D01*
X101016Y107165D01*
D11*
X88878Y72901D02*
Y102428D01*
X97992D01*
X88878Y72901D02*
X97992D01*
X302540Y102428D02*
X310335D01*
Y92665D02*
Y102428D01*
X302540Y72901D02*
X310335D01*
Y82665D01*
M02*
