G04*
G04 #@! TF.GenerationSoftware,Altium Limited,Altium Designer,19.0.4 (130)*
G04*
G04 Layer_Physical_Order=4*
G04 Layer_Color=16711680*
%FSLAX25Y25*%
%MOIN*%
G70*
G01*
G75*
%ADD12R,0.02756X0.16535*%
%ADD13R,0.02756X0.12598*%
%ADD14C,0.01000*%
%ADD23C,0.00700*%
%ADD25C,0.04134*%
%ADD26R,0.04134X0.04134*%
%ADD27C,0.08071*%
%ADD28C,0.02000*%
D12*
X278150Y13780D02*
D03*
X270276D02*
D03*
X258465D02*
D03*
X309646D02*
D03*
X297835D02*
D03*
X286023D02*
D03*
X289961D02*
D03*
X305709D02*
D03*
X293898D02*
D03*
X266338D02*
D03*
X274213D02*
D03*
X301772D02*
D03*
X262402D02*
D03*
X282086D02*
D03*
X250590D02*
D03*
X211221D02*
D03*
X246654D02*
D03*
X234842D02*
D03*
X183661D02*
D03*
X191535D02*
D03*
X219094D02*
D03*
X207284D02*
D03*
X230906D02*
D03*
X242717D02*
D03*
X199409D02*
D03*
X203347D02*
D03*
X215158D02*
D03*
X187598D02*
D03*
X195472D02*
D03*
X238780D02*
D03*
X254528D02*
D03*
X321457D02*
D03*
X341142D02*
D03*
X337205D02*
D03*
X372638D02*
D03*
X349016D02*
D03*
X329331D02*
D03*
X352953D02*
D03*
X317520D02*
D03*
X356890D02*
D03*
X313583D02*
D03*
X364764D02*
D03*
X325394D02*
D03*
X345079D02*
D03*
X360827D02*
D03*
X333268D02*
D03*
X368701D02*
D03*
X376575D02*
D03*
D13*
X179724Y15748D02*
D03*
D14*
X362656Y23737D02*
X366414D01*
X366208Y23627D02*
X366223Y23613D01*
Y23275D02*
Y23613D01*
X365642Y22693D02*
X366223Y23275D01*
X365642Y14658D02*
Y22693D01*
X364764Y13780D02*
X365642Y14658D01*
X366414Y23737D02*
X366457D01*
X366488Y23767D01*
X361705Y22786D02*
X362656Y23737D01*
X361705Y14658D02*
Y22786D01*
X360827Y13780D02*
X361705Y14658D01*
X333857Y24341D02*
X334015Y24499D01*
X333857Y14368D02*
Y24341D01*
X333268Y13780D02*
X333857Y14368D01*
X333694Y24474D02*
X333772Y24395D01*
X330696Y24474D02*
X333694D01*
X329769Y23547D02*
X330696Y24474D01*
X329769Y14218D02*
Y23547D01*
X329331Y13780D02*
X329769Y14218D01*
X315481Y27483D02*
X315551Y27412D01*
X315836Y27158D02*
Y27376D01*
Y27158D02*
X317520Y25474D01*
Y13780D02*
Y25474D01*
X186680Y33136D02*
Y33139D01*
X179724Y26181D02*
X186680Y33136D01*
X179724Y15748D02*
Y26181D01*
X187554Y24263D02*
X187636Y24182D01*
Y13817D02*
Y24182D01*
X187598Y13780D02*
X187636Y13817D01*
X183763Y23989D02*
X183969Y24194D01*
X183763Y13882D02*
Y23989D01*
X183661Y13780D02*
X183763Y13882D01*
X197276Y23945D02*
X197374Y24042D01*
X207789Y25608D02*
X211581D01*
X214280Y22909D01*
Y14658D02*
Y22909D01*
Y14658D02*
X215158Y13780D01*
X210343Y14658D02*
X211221Y13780D01*
X207737Y25279D02*
X207858Y25401D01*
X207737Y25247D02*
Y25279D01*
Y25247D02*
X210343Y22641D01*
Y14658D02*
Y22641D01*
X193614Y23945D02*
X197276D01*
X192413Y22744D02*
X193614Y23945D01*
X192413Y14658D02*
Y22744D01*
X191535Y13780D02*
X192413Y14658D01*
X231415Y14289D02*
Y24185D01*
X231362Y24238D02*
X231415Y24185D01*
X230906Y13780D02*
X231415Y14289D01*
X245376Y23797D02*
X245573Y23994D01*
X244253Y23797D02*
X245376D01*
X243595Y23138D02*
X244253Y23797D01*
X243595Y14658D02*
Y23138D01*
X242717Y13780D02*
X243595Y14658D01*
X255975Y24336D02*
X265155D01*
X263280Y22460D02*
X264716Y23896D01*
X263280Y14658D02*
Y22460D01*
X262402Y13780D02*
X263280Y14658D01*
X255186Y23547D02*
X255975Y24336D01*
X255186Y14438D02*
Y23547D01*
X254528Y13780D02*
X255186Y14438D01*
X276420Y24173D02*
X280052D01*
X279708Y24140D02*
X279861Y23987D01*
Y23711D02*
Y23987D01*
X279028Y22877D02*
X279861Y23711D01*
X279028Y14658D02*
Y22877D01*
X278150Y13780D02*
X279028Y14658D01*
X280052Y24173D02*
X280163D01*
X280196Y24140D01*
X275091Y22844D02*
X276420Y24173D01*
X275091Y14658D02*
Y22844D01*
X274213Y13780D02*
X275091Y14658D01*
X291281Y24482D02*
X296995D01*
X290346Y23547D02*
X291281Y24482D01*
X290346Y14165D02*
Y23547D01*
X289961Y13780D02*
X290346Y14165D01*
X308932Y27483D02*
X315481D01*
X305709Y24260D02*
X308932Y27483D01*
X305709Y13780D02*
Y24260D01*
X332455Y14592D02*
X333268Y13780D01*
X328453Y14658D02*
X329331Y13780D01*
X346463Y24287D02*
X350517D01*
X350370Y24189D02*
X350374Y24185D01*
Y23825D02*
Y24185D01*
X349894Y23344D02*
X350374Y23825D01*
X349894Y14658D02*
Y23344D01*
X349016Y13780D02*
X349894Y14658D01*
X345724Y23547D02*
X346463Y24287D01*
X345724Y14425D02*
Y23547D01*
X345079Y13780D02*
X345724Y14425D01*
X375972Y23737D02*
X376063Y23645D01*
Y14291D02*
Y23645D01*
Y14291D02*
X376575Y13780D01*
X187071Y14307D02*
X187598Y13780D01*
X183421Y14019D02*
X183661Y13780D01*
X159146Y100502D02*
X159637D01*
X152542Y93898D02*
X159146Y100502D01*
X152542Y90206D02*
Y93898D01*
Y90206D02*
X153746Y89002D01*
Y85311D02*
Y89002D01*
X147107Y78672D02*
X153746Y85311D01*
X147107Y75055D02*
Y78672D01*
Y75055D02*
X170011Y52152D01*
X175047D01*
X196452Y30746D01*
X209393D01*
X217635Y22503D01*
Y22128D02*
Y22503D01*
Y22128D02*
X219094Y20669D01*
Y13780D02*
Y20669D01*
D23*
X171894Y66229D02*
Y67605D01*
X170815Y68684D02*
X171894Y67605D01*
X169439Y68684D02*
X170815D01*
X171894Y66229D02*
X200594Y37529D01*
X168371Y69751D02*
X169439Y68684D01*
X167413Y71770D02*
X168371Y70811D01*
Y69751D02*
Y70811D01*
X166352Y71770D02*
X167413D01*
X200594Y37529D02*
X225415D01*
X164063Y74060D02*
X166352Y71770D01*
X295505Y70086D02*
X324861D01*
X294405Y71186D02*
X295505Y70086D01*
X292261Y71186D02*
X294405D01*
X291161Y70086D02*
X292261Y71186D01*
X289478Y70086D02*
X291161D01*
X288418Y71145D02*
X289478Y70086D01*
X286841Y71145D02*
X288418D01*
X285781Y70086D02*
X286841Y71145D01*
X284379Y70086D02*
X285781D01*
X269216Y72114D02*
X270335Y70995D01*
X268229Y72114D02*
X269216D01*
X266425Y73919D02*
X268229Y72114D01*
X272605Y69219D02*
X273361Y68462D01*
X271125Y69219D02*
X272605D01*
X270335Y70009D02*
X271125Y69219D01*
X270335Y70009D02*
Y70995D01*
X273361Y66982D02*
Y68462D01*
Y66982D02*
X274151Y66193D01*
X322969D01*
X266425Y73919D02*
Y76347D01*
X255919Y68676D02*
Y69881D01*
X254802Y70998D02*
X255919Y69881D01*
X253597Y70998D02*
X254802D01*
X259564Y65031D02*
Y66269D01*
X258448Y67385D02*
X259564Y66269D01*
X257210Y67385D02*
X258448D01*
X259564Y65031D02*
X262358Y62238D01*
X255919Y68676D02*
X257210Y67385D01*
X250677Y73919D02*
X253597Y70998D01*
X242490Y67779D02*
X243771Y66499D01*
X241068Y67779D02*
X242490D01*
X240061Y68787D02*
X241068Y67779D01*
X238846Y71063D02*
X240061Y69848D01*
Y68787D02*
Y69848D01*
X237785Y71063D02*
X238846D01*
X243771Y65077D02*
Y66499D01*
Y65077D02*
X250768Y58080D01*
X234929Y73919D02*
X237785Y71063D01*
X234929Y73919D02*
Y76347D01*
X250768Y58080D02*
X319115D01*
X225747Y67352D02*
X226828D01*
X224563Y68536D02*
X225747Y67352D01*
X224563Y68536D02*
Y69881D01*
X223479Y70964D02*
X224563Y69881D01*
X222135Y70964D02*
X223479D01*
X228207Y64892D02*
Y65973D01*
X226828Y67352D02*
X228207Y65973D01*
Y64892D02*
X239076Y54023D01*
X219181Y73919D02*
X222135Y70964D01*
X239076Y54023D02*
X293458D01*
X219181Y73919D02*
Y76347D01*
X209090Y68261D02*
Y69481D01*
X207658Y70912D02*
X209090Y69481D01*
X206439Y70912D02*
X207658D01*
X212955Y64396D02*
Y65686D01*
X211595Y67047D02*
X212955Y65686D01*
X210305Y67047D02*
X211595D01*
X209090Y68261D02*
X210305Y67047D01*
X212955Y64396D02*
X227182Y50169D01*
X203433Y73918D02*
X206439Y70912D01*
X195775Y67118D02*
X196884Y66009D01*
X194485Y67118D02*
X195775D01*
X193197Y68406D02*
X194485Y67118D01*
X196884Y64719D02*
Y66009D01*
X191909Y70769D02*
X193197Y69481D01*
Y68406D02*
Y69481D01*
X190834Y70769D02*
X191909D01*
X196884Y64719D02*
X215490Y46113D01*
X260804D01*
X187685Y73919D02*
X190834Y70769D01*
X175343Y74920D02*
X175444D01*
X180569Y66508D02*
X182146Y64931D01*
Y63709D02*
Y64931D01*
Y63709D02*
X203494Y42361D01*
X179347Y66508D02*
X180569D01*
X177997Y67858D02*
X179347Y66508D01*
X177997Y67858D02*
Y68914D01*
X176586Y70325D02*
X177997Y68914D01*
X175530Y70325D02*
X176586D01*
X171937Y73919D02*
X175530Y70325D01*
X247922Y21938D02*
Y36225D01*
X243186Y40961D02*
X247922Y36225D01*
X202915Y40961D02*
X243186D01*
X249322Y21938D02*
Y36805D01*
X243766Y42361D02*
X249322Y36805D01*
X203494Y42361D02*
X243766D01*
X170537Y73339D02*
X202915Y40961D01*
X267607Y21938D02*
Y37330D01*
X260224Y44713D02*
X267607Y37330D01*
X214910Y44713D02*
X260224D01*
X269007Y21938D02*
Y37910D01*
X260804Y46113D02*
X269007Y37910D01*
X186285Y73339D02*
X214910Y44713D01*
X283355Y21938D02*
Y39937D01*
X274523Y48770D02*
X283355Y39937D01*
X226602Y48770D02*
X274523D01*
X284755Y21938D02*
Y40517D01*
X275103Y50169D02*
X284755Y40517D01*
X227182Y50169D02*
X275103D01*
X202033Y73339D02*
X226602Y48770D01*
X299103Y21938D02*
Y46398D01*
X292878Y52623D02*
X299103Y46398D01*
X238496Y52623D02*
X292878D01*
X217781Y73339D02*
X238496Y52623D01*
X293458Y54023D02*
X300503Y46978D01*
Y21938D02*
Y46978D01*
X318535Y56680D02*
X322725Y52490D01*
X250188Y56680D02*
X318535D01*
X233529Y73339D02*
X250188Y56680D01*
X319115Y58080D02*
X324125Y53070D01*
X322725Y21938D02*
Y52490D01*
X324125Y21938D02*
Y53070D01*
X320361Y60838D02*
X338473Y42725D01*
X261778Y60838D02*
X320361D01*
X249277Y73339D02*
X261778Y60838D01*
X320941Y62238D02*
X339873Y43305D01*
X262358Y62238D02*
X320941D01*
X338473Y21938D02*
Y42725D01*
X339873Y21938D02*
Y43305D01*
X322389Y64793D02*
X354221Y32960D01*
X273571Y64793D02*
X322389D01*
X265025Y73339D02*
X273571Y64793D01*
X322969Y66193D02*
X355621Y33540D01*
X354221Y21938D02*
Y32960D01*
X355621Y21938D02*
Y33540D01*
X283236Y77263D02*
X285630Y74869D01*
X282657Y77263D02*
X283236D01*
X282246Y76853D02*
X282657Y77263D01*
X282246Y72218D02*
Y76853D01*
X281693Y82744D02*
X281802Y82634D01*
Y78388D02*
Y82634D01*
X280847Y77433D02*
X281802Y78388D01*
X280847Y71638D02*
Y77433D01*
X282246Y72218D02*
X284379Y70086D01*
X280847Y71638D02*
X283799Y68686D01*
X324281D01*
X324861Y70086D02*
X371369Y23577D01*
Y21938D02*
Y23577D01*
Y21938D02*
X372638Y20669D01*
Y13780D02*
Y20669D01*
X324281Y68686D02*
X369969Y22997D01*
Y21938D02*
Y22997D01*
X368701Y20669D02*
X369969Y21938D01*
X368701Y13780D02*
Y20669D01*
X171833Y76450D02*
Y77030D01*
X170433Y75870D02*
Y77610D01*
X160566Y81494D02*
X164063Y77997D01*
X162333Y95603D02*
X164832D01*
X167799Y94649D02*
X168306Y95157D01*
X164063Y74060D02*
Y77997D01*
X165786Y94649D02*
X167799D01*
X168306Y95157D02*
X168886D01*
X171457Y92586D01*
X164832Y95603D02*
X165786Y94649D01*
X167219Y96049D02*
X167629Y96460D01*
Y100351D01*
X159166Y94415D02*
X161753Y97003D01*
X166366Y96049D02*
X167219D01*
X167520Y100460D02*
X167629Y100351D01*
X161753Y97003D02*
X165412D01*
X166366Y96049D01*
X200014Y36129D02*
X224835D01*
X236111Y24852D01*
X225415Y37529D02*
X237511Y25432D01*
X159166Y80914D02*
Y94415D01*
Y80914D02*
X162663Y77417D01*
X236111Y21938D02*
Y24852D01*
X162663Y73480D02*
Y77417D01*
X234842Y20669D02*
X236111Y21938D01*
X234842Y13780D02*
Y20669D01*
X162663Y73480D02*
X200014Y36129D01*
X160566Y81494D02*
Y93836D01*
X237511Y21938D02*
Y25432D01*
X238780Y13780D02*
Y20669D01*
X237511Y21938D02*
X238780Y20669D01*
X160566Y93836D02*
X162333Y95603D01*
X171833Y76450D02*
X171937Y76347D01*
Y73919D02*
Y76347D01*
X170433Y75870D02*
X170537Y75767D01*
Y73339D02*
Y75767D01*
X172823Y77440D02*
X175343Y74920D01*
X172243Y77440D02*
X172823D01*
X171566Y78743D02*
Y82634D01*
X170433Y77610D02*
X171566Y78743D01*
X188571Y77440D02*
X191142Y74869D01*
X187991Y77440D02*
X188571D01*
X187314Y78743D02*
Y82634D01*
X186181Y77610D02*
X187314Y78743D01*
X204319Y77440D02*
X206890Y74869D01*
X203739Y77440D02*
X204319D01*
X203062Y78743D02*
Y82634D01*
X201929Y77610D02*
X203062Y78743D01*
X220067Y77440D02*
X222638Y74869D01*
X219487Y77440D02*
X220067D01*
X218810Y78743D02*
Y82634D01*
X217677Y77610D02*
X218810Y78743D01*
X235815Y77440D02*
X238386Y74869D01*
X235235Y77440D02*
X235815D01*
X234558Y78743D02*
Y82634D01*
X233425Y77610D02*
X234558Y78743D01*
X251563Y77440D02*
X254134Y74869D01*
X250983Y77440D02*
X251563D01*
X250306Y78743D02*
Y82634D01*
X249173Y77610D02*
X250306Y78743D01*
X264921Y75870D02*
Y77610D01*
Y75870D02*
X265025Y75767D01*
X266321Y76450D02*
Y77030D01*
Y76450D02*
X266425Y76347D01*
X265025Y73339D02*
Y75767D01*
X267311Y77440D02*
X269882Y74869D01*
X266731Y77440D02*
X267311D01*
X266321Y77030D02*
X266731Y77440D01*
X265945Y82744D02*
X266054Y82634D01*
Y78743D02*
Y82634D01*
X264921Y77610D02*
X266054Y78743D01*
X355621Y21938D02*
X356890Y20669D01*
Y13780D02*
Y20669D01*
X352953D02*
X354221Y21938D01*
X352953Y13780D02*
Y20669D01*
X250677Y73919D02*
Y76347D01*
X250573Y76450D02*
Y77030D01*
X249277Y73339D02*
Y75767D01*
X337205Y20669D02*
X338473Y21938D01*
X324125D02*
X325394Y20669D01*
X234825Y76450D02*
Y77030D01*
Y76450D02*
X234929Y76347D01*
X321457Y20669D02*
X322725Y21938D01*
X233529Y73339D02*
Y75767D01*
X219077Y76450D02*
X219181Y76347D01*
X217677Y75870D02*
X217781Y75767D01*
X203329Y76450D02*
X203433Y76347D01*
X203329Y76450D02*
Y77030D01*
X284755Y21938D02*
X286023Y20669D01*
X202033Y73339D02*
Y75767D01*
X282086Y20669D02*
X283355Y21938D01*
X187581Y76450D02*
Y77030D01*
X269007Y21938D02*
X270276Y20669D01*
X266338D02*
X267607Y21938D01*
X186181Y75870D02*
Y77610D01*
X249322Y21938D02*
X250590Y20669D01*
X250573Y77030D02*
X250983Y77440D01*
X250573Y76450D02*
X250677Y76347D01*
X339873Y21938D02*
X341142Y20669D01*
X250197Y82744D02*
X250306Y82634D01*
X249173Y75870D02*
X249277Y75767D01*
X249173Y75870D02*
Y77610D01*
X337205Y13780D02*
Y20669D01*
X341142Y13780D02*
Y20669D01*
X234449Y82744D02*
X234558Y82634D01*
X233425Y75870D02*
X233529Y75767D01*
X233425Y75870D02*
Y77610D01*
X234825Y77030D02*
X235235Y77440D01*
X321457Y13780D02*
Y20669D01*
X325394Y13780D02*
Y20669D01*
X297835Y13780D02*
Y20669D01*
X300503Y21938D02*
X301772Y20669D01*
Y13780D02*
Y20669D01*
X219077Y77030D02*
X219487Y77440D01*
X219077Y76450D02*
Y77030D01*
X218701Y82744D02*
X218810Y82634D01*
X217677Y75870D02*
Y77610D01*
X217781Y73339D02*
Y75767D01*
X297835Y20669D02*
X299103Y21938D01*
X202953Y82744D02*
X203062Y82634D01*
X201929Y75870D02*
Y77610D01*
Y75870D02*
X202033Y75767D01*
X203329Y77030D02*
X203739Y77440D01*
X203433Y73918D02*
Y76347D01*
X282086Y13780D02*
Y20669D01*
X286023Y13780D02*
Y20669D01*
X266338Y13780D02*
Y20669D01*
X187685Y73919D02*
Y76347D01*
X270276Y13780D02*
Y20669D01*
X187581Y77030D02*
X187991Y77440D01*
X187581Y76450D02*
X187685Y76347D01*
X187205Y82744D02*
X187314Y82634D01*
X186285Y73339D02*
Y75767D01*
X186181Y75870D02*
X186285Y75767D01*
X246654Y13780D02*
Y20669D01*
X250590Y13780D02*
Y20669D01*
X171833Y77030D02*
X172243Y77440D01*
X171457Y82744D02*
X171566Y82634D01*
X246654Y20669D02*
X247922Y21938D01*
D25*
X297441Y92586D02*
D03*
Y82744D02*
D03*
X293504Y100460D02*
D03*
Y74869D02*
D03*
X285630D02*
D03*
X277756D02*
D03*
X269882D02*
D03*
X262008D02*
D03*
X254134D02*
D03*
X246260D02*
D03*
X238386D02*
D03*
X230512D02*
D03*
X289567Y82744D02*
D03*
X281693D02*
D03*
X273819D02*
D03*
X265945D02*
D03*
X258071D02*
D03*
X250197D02*
D03*
X242323D02*
D03*
X234449D02*
D03*
X289567Y92586D02*
D03*
X281693D02*
D03*
X273819D02*
D03*
X265945D02*
D03*
X258071D02*
D03*
X250197D02*
D03*
X242323D02*
D03*
X234449D02*
D03*
X285630Y100460D02*
D03*
X277756D02*
D03*
X269882D02*
D03*
X262008D02*
D03*
X254134D02*
D03*
X246260D02*
D03*
X238386D02*
D03*
X108465Y92586D02*
D03*
X116339D02*
D03*
X124213D02*
D03*
X132087D02*
D03*
X139961D02*
D03*
X104528Y100460D02*
D03*
X112402D02*
D03*
X120276D02*
D03*
X128150D02*
D03*
X136024D02*
D03*
X100591Y82744D02*
D03*
X108465D02*
D03*
X116339D02*
D03*
X124213D02*
D03*
X132087D02*
D03*
X139961D02*
D03*
X104528Y74869D02*
D03*
X112402D02*
D03*
X120276D02*
D03*
X128150D02*
D03*
X136024D02*
D03*
X151772Y100460D02*
D03*
X159646D02*
D03*
X167520D02*
D03*
X175394D02*
D03*
X183268D02*
D03*
X191142D02*
D03*
X199016D02*
D03*
X206890D02*
D03*
X214764D02*
D03*
X222638D02*
D03*
X155709Y92586D02*
D03*
X163583D02*
D03*
X171457D02*
D03*
X179331D02*
D03*
X187205D02*
D03*
X195079D02*
D03*
X202953D02*
D03*
X210827D02*
D03*
X218701D02*
D03*
X155709Y82744D02*
D03*
X163583D02*
D03*
X171457D02*
D03*
X179331D02*
D03*
X187205D02*
D03*
X195079D02*
D03*
X202953D02*
D03*
X210827D02*
D03*
X218701D02*
D03*
X151772Y74869D02*
D03*
X159646D02*
D03*
X167520D02*
D03*
X175394D02*
D03*
X183268D02*
D03*
X191142D02*
D03*
X199016D02*
D03*
X206890D02*
D03*
X214764D02*
D03*
X222638D02*
D03*
X226575Y82744D02*
D03*
Y92586D02*
D03*
X230512Y100460D02*
D03*
D26*
X100591Y92586D02*
D03*
D27*
X146457Y87665D02*
D03*
X304528D02*
D03*
D28*
X186785Y33242D02*
D03*
X207410Y25573D02*
D03*
X231607Y24043D02*
D03*
X375872Y23637D02*
D03*
X366414Y23737D02*
D03*
X197325Y23945D02*
D03*
X187673Y24354D02*
D03*
X183865Y24401D02*
D03*
X179793Y33634D02*
D03*
X297043Y24482D02*
D03*
X350565Y24287D02*
D03*
X334048Y24474D02*
D03*
X315511Y27483D02*
D03*
X280052Y24173D02*
D03*
X265448Y24336D02*
D03*
X245781Y23988D02*
D03*
M02*
