G04*
G04 #@! TF.GenerationSoftware,Altium Limited,Altium Designer,19.0.4 (130)*
G04*
G04 Layer_Color=32768*
%FSLAX25Y25*%
%MOIN*%
G70*
G01*
G75*
%ADD14C,0.01000*%
%ADD25C,0.00600*%
%ADD34C,0.00394*%
D14*
X-23178Y109076D02*
X-21178Y103076D01*
X-25178D02*
X-23178Y109076D01*
X-25178Y6000D02*
X-23178Y-0D01*
X-21178Y6000D01*
X-23178Y71033D02*
Y109076D01*
Y-0D02*
Y34843D01*
X-24178Y109076D02*
X-1197D01*
X-24178Y-0D02*
X177937D01*
X-0Y-13780D02*
X6000Y-11779D01*
X-0Y-13780D02*
X6000Y-15779D01*
X373134D02*
X379134Y-13780D01*
X373134Y-11779D02*
X379134Y-13780D01*
X-0D02*
X169872D01*
X206062D02*
X379134D01*
X-0Y-14780D02*
Y16520D01*
X379134Y-14780D02*
Y772D01*
D25*
X-19579Y40442D02*
Y36443D01*
X-23578Y40442D01*
X-24577D01*
X-25577Y39442D01*
Y37443D01*
X-24577Y36443D01*
X-25577Y42441D02*
Y46440D01*
X-24577D01*
X-20579Y42441D01*
X-19579D01*
Y48439D02*
X-20579D01*
Y49439D01*
X-19579D01*
Y48439D01*
X-25577Y53438D02*
Y57437D01*
X-24577D01*
X-20579Y53438D01*
X-19579D01*
X-24577Y59436D02*
X-25577Y60435D01*
Y62435D01*
X-24577Y63434D01*
X-20579D01*
X-19579Y62435D01*
Y60435D01*
X-20579Y59436D01*
X-24577D01*
X-25577Y69433D02*
Y65434D01*
X-22578D01*
X-23578Y67433D01*
Y68433D01*
X-22578Y69433D01*
X-20579D01*
X-19579Y68433D01*
Y66434D01*
X-20579Y65434D01*
X171472Y-16379D02*
X172472Y-17379D01*
X174471D01*
X175471Y-16379D01*
Y-12380D01*
X174471Y-11381D01*
X172472D01*
X171472Y-12380D01*
Y-13380D01*
X172472Y-14379D01*
X175471D01*
X181469Y-11381D02*
X179470Y-12380D01*
X177470Y-14379D01*
Y-16379D01*
X178470Y-17379D01*
X180469D01*
X181469Y-16379D01*
Y-15379D01*
X180469Y-14379D01*
X177470D01*
X183468Y-17379D02*
Y-16379D01*
X184468D01*
Y-17379D01*
X183468D01*
X188467Y-12380D02*
X189467Y-11381D01*
X191466D01*
X192465Y-12380D01*
Y-13380D01*
X191466Y-14379D01*
X190466D01*
X191466D01*
X192465Y-15379D01*
Y-16379D01*
X191466Y-17379D01*
X189467D01*
X188467Y-16379D01*
X194465Y-12380D02*
X195465Y-11381D01*
X197464D01*
X198464Y-12380D01*
Y-16379D01*
X197464Y-17379D01*
X195465D01*
X194465Y-16379D01*
Y-12380D01*
X200463D02*
X201463Y-11381D01*
X203462D01*
X204462Y-12380D01*
Y-16379D01*
X203462Y-17379D01*
X201463D01*
X200463Y-16379D01*
Y-12380D01*
D34*
X88386Y66601D02*
Y103413D01*
Y66601D02*
X310728D01*
Y103413D01*
X88386D02*
X310728D01*
X199016Y85696D02*
Y89633D01*
X197047Y87665D02*
X200984D01*
M02*
