G04*
G04 #@! TF.GenerationSoftware,Altium Limited,Altium Designer,19.0.4 (130)*
G04*
G04 Layer_Color=8421504*
%FSLAX25Y25*%
%MOIN*%
G70*
G01*
G75*
%ADD12R,0.02756X0.16535*%
%ADD13R,0.02756X0.12598*%
D12*
X289961Y13780D02*
D03*
X282086D02*
D03*
X270276D02*
D03*
X297835D02*
D03*
X278150D02*
D03*
X286023D02*
D03*
X293898D02*
D03*
X301772D02*
D03*
X274213D02*
D03*
X258465D02*
D03*
X262402D02*
D03*
X266338D02*
D03*
X309646D02*
D03*
X179724D02*
D03*
X183661D02*
D03*
X211221D02*
D03*
X199409D02*
D03*
X187598D02*
D03*
X207284D02*
D03*
X191535D02*
D03*
X195472D02*
D03*
X203347D02*
D03*
X215158D02*
D03*
X219094D02*
D03*
X234842D02*
D03*
X254528D02*
D03*
X238780D02*
D03*
X246654D02*
D03*
X242717D02*
D03*
X230906D02*
D03*
X325394D02*
D03*
X352953D02*
D03*
X360827D02*
D03*
X329331D02*
D03*
X321457D02*
D03*
X313583D02*
D03*
X341142D02*
D03*
X317520D02*
D03*
X345079D02*
D03*
X349016D02*
D03*
X364764D02*
D03*
X376575D02*
D03*
X368701D02*
D03*
X356890D02*
D03*
X333268D02*
D03*
X337205D02*
D03*
D13*
X305709Y15748D02*
D03*
X250590D02*
D03*
X372638D02*
D03*
M02*
